<svg width="150" height="152" viewBox="0 0 150 152" fill="none" xmlns="http://www.w3.org/2000/svg">
<g opacity="0.6" clip-path="url(#clip0_170_1594)">
<g clip-path="url(#clip1_170_1594)">
<g clip-path="url(#clip2_170_1594)">
<path d="M129.377 55.0101C127.653 55.1611 126.557 55.3422 125.361 55.6682C118.25 57.5882 113.039 63.2817 111.585 70.7019C111.292 72.2053 111.187 73.3041 111.187 74.9282C111.187 76.4255 111.251 77.2768 111.474 78.6413C112.418 84.4375 115.677 89.3339 120.542 92.2803C122.805 93.6449 125.537 94.5564 128.351 94.8825C129.183 94.9791 132.149 94.961 133.04 94.8523C136.786 94.4056 140.092 93.0229 142.923 90.7106C143.715 90.0706 145.233 88.5068 145.848 87.6978C149.172 83.3387 150.584 77.627 149.769 71.7887C148.732 64.3323 143.937 58.373 137.085 56.0304C135.824 55.6018 134.195 55.2456 132.805 55.0946C132.19 55.0283 129.828 54.9679 129.377 55.0101ZM133.128 58.2584C136.094 58.7414 138.726 59.9067 140.888 61.6998C143.832 64.139 145.837 67.7677 146.487 71.8189C146.669 72.966 146.727 73.7147 146.727 74.9645C146.727 77.9108 146.164 80.4948 144.992 82.9281C144.189 84.5885 143.327 85.8321 142.067 87.1242C139.546 89.7204 136.434 91.2479 132.629 91.749C131.744 91.8697 129.229 91.8516 128.327 91.7189C126.276 91.423 124.657 90.9158 122.957 90.0222C118.157 87.5045 115.114 82.7832 114.511 76.8905C114.399 75.7614 114.428 73.5094 114.575 72.4226C114.98 69.4098 116.04 66.711 117.723 64.4106C118.28 63.6499 119.517 62.3338 120.261 61.7179C122.53 59.8342 125.367 58.6085 128.292 58.2403C128.584 58.2041 128.902 58.1618 128.995 58.1497C129.094 58.1377 129.922 58.1316 130.842 58.1437C132.032 58.1557 132.688 58.1919 133.128 58.2584Z" fill="#042E4E"/>
<path d="M126.31 62.3834C126.287 62.4015 126.27 62.9148 126.27 63.5185V64.6174L126.756 64.6475C127.565 64.7019 127.852 64.9133 127.97 65.5472C128.005 65.7464 128.028 69.4475 128.028 75.6602V85.4653H130.578H133.128L133.116 74.5794L133.098 63.6997L132.963 63.3917C132.688 62.7638 132.219 62.48 131.316 62.3955C130.654 62.3352 126.363 62.323 126.31 62.3834Z" fill="#042E4E"/>
<path d="M121.844 67.5395C121.146 67.6481 120.648 68.0225 120.425 68.6142C120.325 68.8738 120.32 69.4052 120.302 77.1815L120.29 85.4652L122.764 85.4531L125.243 85.435V76.4692V67.5033L123.719 67.4973C122.881 67.4912 122.037 67.5093 121.844 67.5395Z" fill="#042E4E"/>
<path d="M135.943 76.4687V85.4647H138.405H140.866V77.2898C140.866 69.3262 140.861 69.1028 140.749 68.7344C140.609 68.2515 140.362 67.9435 139.97 67.7504C139.519 67.5209 139.055 67.4727 137.425 67.4727H135.943V76.4687Z" fill="#042E4E"/>
<path d="M44.7602 61.4951C43.6817 61.6521 42.9139 62.1775 42.5855 62.9744C42.4508 63.3064 42.3922 63.9766 42.4508 64.4596C42.6266 65.8966 43.6466 66.6332 45.4637 66.6332C46.6185 66.6332 47.3923 66.3614 47.9315 65.7697C48.7991 64.8098 48.7932 63.1797 47.9082 62.2921C47.5916 61.9721 47.1343 61.7246 46.6244 61.5858C46.2082 61.471 45.2351 61.4228 44.7602 61.4951Z" fill="#042E4E"/>
<path d="M4.40165 62.8539V63.8501H4.68302C5.29265 63.8501 5.93745 63.9648 6.18952 64.1157C6.56467 64.3452 6.64674 64.5746 6.61743 65.3232C6.59398 65.8667 6.56467 66.0115 6.32434 66.6636C5.99607 67.5391 0.00524902 86.2617 0.00524902 86.3945C0.00524902 86.4791 0.304204 86.4911 2.70171 86.4911H5.39816L5.45678 86.3522C5.49195 86.2798 5.82022 85.1568 6.18952 83.8647C6.56467 82.5667 6.93397 81.2867 7.01604 81.0149L7.16258 80.5138H10.6914H14.2261L15.082 83.4844L15.9378 86.4609L18.8511 86.4791L21.7645 86.4911L21.7293 86.3402C21.3893 84.9394 15.3867 63.1678 15.2812 62.9565C15.0936 62.5701 14.695 62.2078 14.2731 62.0328L13.9272 61.8878L9.16734 61.8697L4.40165 61.8516V62.8539ZM12.2565 71.711C12.9307 74.2891 13.4875 76.4385 13.4875 76.4929C13.4875 76.5773 13.2179 76.5895 10.7618 76.5895C9.26113 76.5895 8.036 76.5713 8.036 76.5471C8.036 76.523 8.68667 74.3192 9.48388 71.6507C10.4921 68.2816 10.9493 66.8326 10.9787 66.9051C11.0021 66.9715 11.5766 69.127 12.2565 71.711Z" fill="#042E4E"/>
<path d="M21.9279 62.8479V63.8379L22.3557 63.8803C23.0182 63.9407 23.2174 64.0192 23.487 64.2969C23.6746 64.484 23.745 64.6229 23.7977 64.8644C23.8446 65.0939 23.8622 68.1428 23.8622 75.8348V86.4911H26.5001H29.1379L29.1261 74.76L29.1086 63.029L28.9561 62.7331C28.792 62.401 28.4344 62.087 28.0945 61.9663C27.9362 61.9119 27.0921 61.8878 24.9057 61.8697L21.9279 61.8516V62.8479Z" fill="#042E4E"/>
<path d="M31.601 62.8417V63.8319L32.1285 63.8984C32.7851 63.9829 33.0781 64.1338 33.2892 64.5143L33.4475 64.7859L33.4651 75.6415L33.4768 86.4911L36.1322 86.4791L38.7817 86.4609V74.8385C38.7817 63.5844 38.7759 63.2041 38.6704 62.9202C38.5239 62.5218 38.2308 62.2018 37.8555 62.0328L37.5508 61.8878L34.5788 61.8697L31.601 61.8516V62.8417Z" fill="#042E4E"/>
<path d="M58.9468 67.8339C57.5751 67.9305 55.7286 68.3048 54.5503 68.7214C53.9172 68.9448 52.4108 69.6694 52.4108 69.7479C52.4108 69.8264 53.5363 72.99 53.5831 73.0444C53.6066 73.0685 53.8529 72.996 54.1283 72.8813C56.0276 72.0965 58.2492 71.6496 59.5036 71.8127C60.676 71.9697 61.0688 72.4406 61.1274 73.787L61.1625 74.4632L60.7288 74.5357C59.6854 74.7108 57.3816 75.1575 56.813 75.2964C55.5821 75.5922 54.2631 76.1174 53.5539 76.5884C52.065 77.5967 51.3557 79.1846 51.3557 81.5392C51.3557 84.0932 52.1705 85.6992 53.759 86.2969C54.3628 86.5203 54.9314 86.6109 55.8107 86.6109C57.1354 86.6109 57.8682 86.4298 59.0933 85.7958C59.9198 85.3731 60.2481 85.1497 60.8402 84.6184L61.3033 84.2079L61.3325 84.8297C61.356 85.3792 61.3795 85.4818 61.5377 85.7717C61.6842 86.0373 61.7781 86.1339 62.0536 86.2788L62.3994 86.4599L65.2014 86.478L68.0033 86.4961V85.5301V84.558H67.6868C67.083 84.558 66.6317 84.2924 66.4148 83.8033C66.3093 83.574 66.3034 83.3022 66.3034 78.6412C66.3034 75.864 66.274 73.3644 66.2448 72.9055C66.0572 70.3516 65.2131 68.8965 63.5601 68.2746C62.4346 67.852 60.8694 67.7011 58.9468 67.8339ZM61.145 79.3839V81.2132L60.9574 81.4003C60.0488 82.2879 58.8413 82.8675 57.8857 82.8675C57.0944 82.8675 56.6196 82.5475 56.4321 81.8954C56.3207 81.5151 56.309 80.4283 56.4027 79.9574C56.6021 78.9914 57.2469 78.5084 59.0346 77.9771C59.5389 77.8261 60.7464 77.5665 60.9866 77.5605L61.145 77.5545V79.3839Z" fill="#042E4E"/>
<path d="M80.5773 67.9309C79.2995 68.1483 77.9806 68.8606 76.4154 70.1769L75.7706 70.7202L75.7413 69.9233C75.712 69.1807 75.7002 69.0961 75.5361 68.7641C75.3779 68.4561 75.3134 68.3898 75.0144 68.2268L74.6627 68.0455L71.8607 68.0274L69.0588 68.0094V68.9935V69.9836L69.5395 70.0561C70.0905 70.1406 70.3777 70.3036 70.5887 70.6539L70.7294 70.8832L70.7587 78.6717L70.788 86.4603L73.4376 86.4784L76.0929 86.4904L76.1047 80.1992L76.1223 73.9081L76.6499 73.4673C77.5526 72.7187 78.3967 72.3685 79.3229 72.3625C80.1553 72.3625 80.548 72.6221 80.8001 73.3527C80.847 73.4854 80.8762 75.4537 80.8997 80L80.929 86.4603L83.5844 86.4784L86.2399 86.4904L86.2164 79.3238C86.193 71.5957 86.193 71.6983 85.8823 70.6417C85.7241 70.1165 85.4075 69.4946 85.1378 69.1686C84.8565 68.8305 84.2585 68.4018 83.7779 68.1905C82.9982 67.8524 81.6501 67.7437 80.5773 67.9309Z" fill="#042E4E"/>
<path d="M41.3889 68.9998V69.99L41.8285 70.0263C42.0688 70.0504 42.356 70.1048 42.4615 70.1531C42.7078 70.2557 42.9481 70.5516 43.0301 70.8413C43.0654 70.9862 43.0887 73.6609 43.0887 78.7808V86.4908L45.7442 86.4788L48.3938 86.4607V77.8872V69.3138L48.2297 68.9697C48.0479 68.5832 47.8193 68.3599 47.4266 68.1728C47.1745 68.052 47.0631 68.0459 44.2787 68.0278L41.3889 68.0098V68.9998Z" fill="#042E4E"/>
<path d="M90.4656 68.0825C89.8795 68.1851 89.4281 68.5413 89.2757 69.0244C89.223 69.1814 89.1936 69.8877 89.182 71.2885L89.1585 73.3291H90.0964H91.0401V72.979C91.0401 72.4959 91.1339 72.2122 91.3743 71.9345C91.7318 71.53 91.8549 71.5119 94.4459 71.53L96.7086 71.5481L92.8456 77.0966L88.9885 82.6513V84.5713V86.4911H95.8469H102.705V84.7101V82.929L98.7778 82.9169L94.8503 82.8987L98.6312 77.3442L102.412 71.7896L102.395 69.918L102.383 68.0462L96.5796 68.0402C93.3907 68.0342 90.6356 68.0523 90.4656 68.0825Z" fill="#042E4E"/>
</g>
</g>
</g>
<defs>
<clipPath id="clip0_170_1594">
<rect width="150" height="151.24" fill="white"/>
</clipPath>
<clipPath id="clip1_170_1594">
<rect width="150" height="151.24" fill="white"/>
</clipPath>
<clipPath id="clip2_170_1594">
<rect width="149.99" height="151.24" fill="white" transform="translate(0.00506592)"/>
</clipPath>
</defs>
</svg>
