<svg width="152" height="154" viewBox="0 0 152 154" fill="none" xmlns="http://www.w3.org/2000/svg">
<g opacity="0.6" clip-path="url(#clip0_170_1514)">
<g clip-path="url(#clip1_170_1514)">
<g clip-path="url(#clip2_170_1514)">
<mask id="mask0_170_1514" style="mask-type:luminance" maskUnits="userSpaceOnUse" x="0" y="39" width="152" height="75">
<path d="M151.996 39.2637H0.00564575V113.921H151.996V39.2637Z" fill="white"/>
</mask>
<g mask="url(#mask0_170_1514)">
<path d="M46.9505 62.585H56.5966V65.7368H52.0079V87.8822H46.9505V62.585ZM62.3155 78.3855L63.1822 65.7368H63.4725L64.3392 78.3855H62.3155ZM56.7148 87.8822H61.6665L62.1348 81.1639H64.5196L64.9901 87.8822H69.9397L67.3023 62.585H59.3522L56.7148 87.8822ZM77.1828 79.0283V83.7972C77.1828 84.4402 77.6804 84.6267 77.9707 84.6267C78.4474 84.6267 78.7793 84.2328 78.7793 83.7972V77.9088C78.7793 77.1207 78.6341 76.2499 76.7472 76.2499H74.6943V73.4714H76.8301C78.2609 73.4714 78.7793 73.1396 78.7793 71.5843V66.5662C78.7793 66.1308 78.4474 65.7368 77.9704 65.7368C77.6804 65.7368 77.1828 65.9026 77.1828 66.5662V70.6925H72.123V67.1054C72.123 65.3429 72.3305 62.585 75.876 62.585H80.0646C83.6104 62.585 83.8385 65.3429 83.8385 67.1054V71.1486C83.8385 73.9065 81.9101 74.6531 80.3965 74.5907V74.8397C83.797 74.7567 83.8385 77.3692 83.8385 78.261V83.362C83.8385 85.1451 83.6104 87.8822 80.0646 87.8822H75.876C72.3305 87.8822 72.123 85.1449 72.123 83.3618V79.0283H77.1828ZM87.1563 62.585H98.8719V87.8822H93.8125V65.7368H92.2158V87.8822H87.1563V62.585ZM107.249 76.4985V65.737H107.913C108.452 65.737 108.846 66.1929 108.846 67.0018V75.2336C108.846 76.0426 108.452 76.4984 107.912 76.4984L107.249 76.4985ZM102.19 87.8822H107.249V79.2771H110.152C113.677 79.2771 113.905 76.54 113.905 74.7565V67.1054C113.905 65.3429 113.677 62.585 110.152 62.585H102.19V87.8822ZM123.879 83.7972C123.879 84.2328 123.547 84.6267 123.07 84.6267C122.78 84.6267 122.282 84.4402 122.282 83.7972V66.5662C122.282 65.9026 122.78 65.7368 123.07 65.7368C123.547 65.7368 123.879 66.1308 123.879 66.5662V83.7972ZM117.223 83.362C117.223 85.1451 117.45 87.8822 120.976 87.8822H125.185C128.71 87.8822 128.938 85.1449 128.938 83.3618V67.1054C128.938 65.3429 128.71 62.585 125.185 62.585H120.976C117.451 62.585 117.223 65.3429 117.223 67.1054V83.362ZM145.402 62.585H151.996V87.8822H146.937V72.0197H146.75L144.137 87.8822H140.094L137.502 72.0197H137.315V87.8822H132.256V62.585H138.828L142.125 80.3759L145.402 62.585ZM40.3939 53.2542C38.8452 46.4737 34.9633 40.9582 34.4283 40.0664C33.5824 41.3311 30.4866 46.2043 28.9129 51.5952C27.1937 57.6292 26.9408 62.9789 27.5341 68.225C28.1229 73.4918 30.3476 78.9039 30.3476 78.9039C31.5296 81.7238 33.3003 84.7717 34.4534 86.2649C36.1432 84.067 40.027 77.5145 41.2379 68.9715C41.9118 64.2023 41.9408 60.0347 40.3939 53.2542ZM34.4283 84.5647C33.6675 83.1338 32.4854 80.4174 32.3734 76.1873C32.3444 72.1234 33.9763 68.6189 34.4534 67.8934C34.8783 68.6191 36.2841 71.667 36.4522 75.835C36.5661 79.8991 35.2142 83.1129 34.4283 84.5647ZM39.944 64.7621C39.886 67.3542 39.577 70.0913 39.183 71.7294C39.3239 68.9094 38.9861 64.949 38.339 61.8386C37.6921 58.7489 35.8611 53.5653 34.3994 51.1806C33.0496 53.4615 31.3865 57.9403 30.5156 61.8178C29.6406 65.6952 29.6158 70.4024 29.6158 71.8123C29.3834 70.6302 28.8029 66.3797 28.9667 62.1289C29.1036 58.6246 29.9246 54.996 30.3746 53.3372C32.0915 47.8008 34.0344 44.255 34.3993 43.695C34.7643 44.255 37.211 48.6303 38.48 53.2127C39.7429 57.7953 39.9979 62.1908 39.944 64.7621Z" fill="#042E4E"/>
<path d="M37.0551 87.8416H25.2795V95.7419C25.29 95.7419 25.2983 95.7212 25.3085 95.7212C28.083 92.9427 32.5826 92.9427 35.359 95.7212C38.1334 98.479 38.1334 102.978 35.359 105.757C35.3466 105.778 35.334 105.778 35.3218 105.798C35.3072 105.798 35.2926 105.819 35.2802 105.84C32.512 108.577 28.8959 109.946 25.2795 109.946C21.6468 109.946 18.0139 108.577 15.2437 105.798C10.3583 100.926 9.77978 93.3572 13.5038 87.8416C14.0152 87.0829 14.5977 86.3747 15.2437 85.7267C18.0139 82.9483 21.6468 81.5796 25.2795 81.5796V62.5859C11.3205 62.5859 0.00521851 73.8868 0.00521851 87.8416C0.00521851 101.797 11.3205 113.118 25.2795 113.118C32.5576 113.118 39.1142 110.028 43.7257 105.114V87.8416H37.0551ZM151.995 95.2739H46.95V113.118H151.995V95.2739ZM142.911 107.731H144.245V105.038H142.911V107.731ZM142.911 103.018H144.929L146.279 103.691L146.612 104.364L146.945 105.711V106.384C146.91 111.209 143.807 109.443 140.544 109.751V98.6408H142.911V103.018ZM125.394 98.6408V100.661H123.71V109.751H121.027V100.661H119.344V98.6408H125.394ZM100.826 106.721H101.16L101.826 106.384V101.671H100.826V106.721ZM98.1261 101.671H97.1089V106.384L97.7926 106.721H98.1261V101.671ZM100.826 98.6408V99.6507H102.51L103.509 100.324L104.193 100.997L104.526 102.344V106.048L104.194 107.395L103.509 108.068L102.51 108.741H100.826V109.751H98.1261V108.741H96.4425L95.4256 108.068L94.7592 107.395L94.4261 106.048V102.344L94.759 100.997L95.4256 100.324L96.4425 99.6507H98.1261V98.6408H100.826ZM78.9351 98.6408V100.661H76.9151V103.018H78.9351V105.038H76.9151V107.731H79.2718V109.751H74.2216V98.6408H78.9351ZM54.6939 103.018H56.0407V98.6408H58.3974V109.751H56.0407V105.038H54.6939V109.751H52.0004V98.6408H54.6939V103.018Z" fill="#042E4E"/>
</g>
</g>
</g>
</g>
<defs>
<clipPath id="clip0_170_1514">
<rect width="152" height="153.257" fill="white"/>
</clipPath>
<clipPath id="clip1_170_1514">
<rect width="152" height="153.257" fill="white"/>
</clipPath>
<clipPath id="clip2_170_1514">
<rect width="151.99" height="153.257" fill="white" transform="translate(0.00585938)"/>
</clipPath>
</defs>
</svg>
