<svg width="161" height="162" viewBox="0 0 161 162" fill="none" xmlns="http://www.w3.org/2000/svg">
<g opacity="0.6" clip-path="url(#clip0_170_1551)">
<g clip-path="url(#clip1_170_1551)">
<g clip-path="url(#clip2_170_1551)">
<path fill-rule="evenodd" clip-rule="evenodd" d="M75.4641 57.4189V59.0726H84.9331V57.4189C87.2165 57.0639 88.6786 54.9831 88.7553 53.008C88.8211 51.3242 87.8782 49.716 85.5792 49.3209L85.7681 48.6701L82.8321 48.6719L82.6149 49.5453L81.495 49.5463C81.705 49.2725 81.8281 48.9311 81.8281 48.5606C81.8281 47.9829 81.5251 47.4736 81.0688 47.1834V46.7097H81.9258V44.9692H81.0688V44.1113H79.3284V44.9692H78.4704V46.7097H79.3284V47.1834C78.8721 47.4727 78.5681 47.9819 78.5681 48.5606C78.5681 48.9311 78.6932 49.2725 78.9021 49.5463L77.7823 49.5453L77.5651 48.6719L74.6291 48.6701L74.8189 49.3209C72.5162 49.7133 71.5734 51.3223 71.6418 53.0099C71.7222 54.9831 73.1842 57.0612 75.4641 57.4189ZM123.942 100.653H83.4686C81.6378 101.204 80.1502 101.56 80.1502 101.56C80.1502 101.56 78.8377 101.237 76.8161 100.653H36.3814C36.1349 101.65 34.5779 103.297 33.5083 103.495V111.482C34.807 111.76 36.029 112.928 36.3814 114.201H123.941C124.292 112.928 125.515 111.76 126.812 111.482V103.495C125.743 103.297 124.254 101.836 123.942 100.653ZM123.662 101.378H82.9858C81.4242 101.87 80.2615 102.203 80.2615 102.203C80.2615 102.203 78.7309 101.848 77.0288 101.325L36.7054 101.378C36.4954 102.269 35.1675 103.739 34.2548 103.915V111.042C35.3619 111.29 36.4033 112.333 36.7054 113.468H123.662C123.961 112.333 125.004 111.29 126.111 111.042V103.915C125.198 103.739 123.927 102.433 123.662 101.378ZM120.572 104.096H118.948L118.116 106.855H117.712L116.879 104.096H115.258L116.464 107.616L115.155 111.197H116.777L117.711 108.377H118.115L119.049 111.197H120.673L119.362 107.616L120.572 104.096ZM111.004 111.202L110.852 109.528H109.077L108.924 111.202H107.403L108.093 104.1H111.837L112.527 111.202H111.004ZM109.431 105.622L109.208 108.005H110.72L110.497 105.622H109.431ZM104.847 109.071H101.599V111.202H100.078V104.1H104.847V109.071ZM103.324 105.622H101.599V107.549H103.324V105.622ZM97.2891 105.622H95.6654V111.202H94.1448V105.622H92.5213V104.1H97.2899L97.2891 105.622ZM89.9229 106.312H88.4006V105.622H86.9603V109.679H88.4006V108.989H89.9229V111.202H85.4398V104.1H89.9229V106.312ZM82.2847 106.312H80.7633V105.622H79.3232V109.679H80.7633V108.989H82.2847V111.202H77.8008V104.1H82.2847V106.312ZM74.8191 111.202H70.0513V104.1H74.8191V111.202ZM73.2977 105.622H71.5727V109.679H73.2977V105.622ZM67.5588 105.622H65.0846V111.202H63.5632V104.1H67.5588V105.622ZM60.4081 106.312H58.8867V105.622H57.4457V109.679H58.8867V108.989H60.4081V111.202H55.9241V104.1H60.4081V106.312ZM52.6102 111.202H47.8426V104.1H52.6102V111.202ZM51.088 105.622H49.364V109.679H51.088V105.622ZM44.797 109.071H41.5506V111.202H40.0292V104.1H44.797V109.071ZM43.2755 105.622H41.5506V107.549H43.2755V105.622ZM157.782 87.7259C148.391 87.4648 138.966 85.2699 131.101 79.9117C129.128 76.9619 125.415 75.2972 122.234 74.0724C121.136 71.1062 118.047 69.6022 115.282 68.5271C114.32 66.5191 113.163 65.9716 111.498 65.5764C110.937 65.4149 109.14 65.1848 108.254 64.9283C106.031 64.2841 103.619 63.3266 101.268 64.6829C96.5325 67.0512 102.785 71.7058 95.8334 72.9763C96.1593 71.8355 96.7497 70.5988 97.2361 69.5145C95.3287 69.2727 92.4201 68.8354 91.491 68.2577C91.5074 67.5624 91.6634 66.4735 91.8634 65.9788C91.8779 65.9359 92.2201 66.8532 92.2339 66.8102C92.3781 66.1843 92.7093 65.1675 93.2232 64.7121C94.2481 64.9585 98.0448 66.1259 98.5193 63.5502C97.8157 63.5502 96.758 63.5913 96.1894 63.0748C97.0928 62.6494 98.9812 62.4496 99.6347 63.4298C99.7579 63.584 99.8181 63.6151 99.8967 63.5238C101.207 60.8588 98.1123 59.7609 96.7753 59.739C96.6348 59.373 96.3509 59.1312 95.9767 58.8902V57.7776C97.2151 57.6525 97.8715 56.4854 97.8842 55.3619C97.8951 54.273 97.3028 53.2252 96.0533 53.2106L96.1209 52.914H94.5739L94.4653 53.3165H93.9251C93.9861 53.2221 94.0274 53.1161 94.0462 53.0052C94.065 52.8942 94.061 52.7806 94.0344 52.6714C94.0079 52.5621 93.9593 52.4593 93.8918 52.3693C93.8241 52.2794 93.7389 52.2042 93.6411 52.1484V51.8125H94.1368V50.9911H93.6421V50.4954H92.8171V50.9911H92.3214V51.8125H92.8171V52.1484C92.7198 52.2045 92.6349 52.2799 92.5675 52.37C92.5003 52.4599 92.452 52.5627 92.4257 52.6719C92.3992 52.7811 92.3954 52.8946 92.4142 53.0054C92.4329 53.1163 92.4741 53.2221 92.535 53.3165H91.9929L91.8861 52.914H90.3391L90.4049 53.2106C89.1482 53.2261 88.5567 54.2857 88.5759 55.3819C88.5951 56.4999 89.2495 57.6544 90.4815 57.7786V58.8975L90.476 58.8985H90.4989C89.1281 59.0773 87.9964 58.9349 87.1247 58.8126C87.1394 59.4943 87.9087 60.5193 88.9126 60.8515C88.282 61.2458 87.31 61.6719 86.5918 61.8865C86.5296 61.9184 87.4616 62.0872 87.3995 62.1182C86.8665 62.6504 85.5577 63.0893 84.8768 63.3385C84.8148 63.3695 85.8398 63.4617 85.7931 63.5083C85.5048 63.6434 83.9998 64.6053 83.9998 64.6053H76.411C76.411 64.6053 74.9077 63.6434 74.6194 63.5083C74.5729 63.4617 75.5968 63.3695 75.5348 63.3385C74.8531 63.0903 73.5451 62.6504 73.0122 62.1182C72.951 62.0872 73.882 61.9184 73.819 61.8865C73.1007 61.6719 72.1296 61.2449 71.498 60.8515C72.5011 60.5193 73.2714 59.4943 73.286 58.8126C72.4135 58.9349 71.2836 59.0773 69.9118 58.8985L69.9137 57.7786C71.1394 57.6553 71.7946 56.509 71.8194 55.3956C71.8439 54.294 71.2526 53.2261 69.9904 53.2106L70.056 52.914H68.5091L68.4013 53.3165H67.8601C67.9212 53.2221 67.9624 53.1163 67.9812 53.0053C68.0001 52.8945 67.9961 52.7809 67.9696 52.6717C67.9431 52.5623 67.8947 52.4595 67.8272 52.3696C67.7597 52.2796 67.6747 52.2044 67.5773 52.1484V51.8125H68.0737V50.9911H67.5773V50.4954H66.7531V50.9911H66.2566V51.8125H66.7531V52.1484C66.6555 52.2042 66.5704 52.2795 66.5029 52.3695C66.4353 52.4594 66.3868 52.5622 66.3602 52.6714C66.3336 52.7807 66.3296 52.8942 66.3485 53.0052C66.3672 53.1161 66.4082 53.222 66.4693 53.3165H65.929L65.8213 52.914H64.2743L64.34 53.2106C63.0906 53.2261 62.4983 54.273 62.511 55.3619C62.5229 56.4854 63.1781 57.6535 64.4176 57.7776V58.8966L64.4112 58.8975H64.4231C64.0543 59.1367 63.7742 59.3758 63.6354 59.739C62.2983 59.7618 59.2054 60.8598 60.5151 63.5238C60.5926 63.616 60.6546 63.585 60.7779 63.4298C61.4314 62.4505 63.3197 62.6504 64.2232 63.0748C63.6547 63.5913 62.5968 63.5502 61.8941 63.5502C62.3677 66.1267 66.1653 64.9585 67.1894 64.7121C67.7032 65.1675 68.0336 66.1843 68.1786 66.8102C68.1924 66.8532 68.5346 65.9359 68.5484 65.9788C68.7491 66.4735 68.9061 67.5624 68.9216 68.2577C67.9924 68.8364 65.0838 69.2727 63.1764 69.5145C63.6638 70.5988 64.2534 71.8355 64.5782 72.9763C57.6283 71.7058 63.88 67.0512 59.1442 64.6829C56.7932 63.3266 54.3819 64.2831 52.1578 64.9283C51.2725 65.1848 49.4755 65.4149 48.9132 65.5764C47.2486 65.9716 46.0913 66.5191 45.1283 68.5271C42.3639 69.6022 39.2763 71.1062 38.1775 74.0724C34.9978 75.2972 31.285 76.9619 29.3101 79.9117C21.4465 85.269 12.0195 87.4639 2.63094 87.7259C1.26832 87.7633 0.38121 87.8391 0.00610352 89.3231C0.00610352 91.9461 2.90473 92.4398 4.82954 92.4863C4.83593 92.4863 4.93724 93.0249 5.02395 93.1828C6.22867 95.3732 9.32809 95.3758 11.0831 95.2106C13.0061 97.9825 16.9397 97.6137 19.4167 96.8042C20.9764 98.6888 25.7488 99.0959 28.329 98.5319C31.8043 99.6207 33.4818 99.2118 34.5798 98.9691C34.3781 100.598 32.3172 101.811 30.9793 101.713V113.407C33.1724 113.469 34.4401 114.752 34.5789 116.791H125.834C125.972 114.752 127.24 113.469 129.432 113.407V101.713C128.095 101.811 126.034 100.598 125.832 98.9691C126.93 99.2118 128.609 99.6207 132.084 98.5319C134.664 99.0959 139.435 98.6897 140.996 96.8042C143.473 97.6137 147.407 97.9825 149.33 95.2106C151.087 95.3768 154.184 95.3741 155.389 93.1828C155.478 93.0249 155.578 92.4863 155.583 92.4863C157.508 92.4398 160.407 91.9461 160.407 89.3231C160.032 87.8391 159.143 87.7633 157.782 87.7259ZM36.0108 98.2672C41.0478 96.9018 44.9833 93.9886 48.6193 91.3127C49.6068 92.1614 50.7687 92.0729 51.9013 91.1466C52.2782 92.1606 52.8395 93.3561 54.5289 92.8533C54.8191 93.4383 55.8413 94.9734 57.5279 94.6421C58.9079 96.0339 59.6115 95.6369 60.2366 95.4352C60.7469 95.8934 61.7244 96.2685 62.8004 95.7254C63.4757 96.4702 64.2332 96.4666 65.1559 96.1498C65.395 96.504 66.1243 96.6099 66.4446 96.3817C67.5775 97.0551 68.7334 97.6891 69.91 98.2827L36.0108 98.2672ZM90.811 98.2827C91.9877 97.6891 93.1435 97.0551 94.2765 96.3817C94.5958 96.6099 95.3242 96.504 95.5633 96.1498C96.4869 96.4666 97.2444 96.4711 97.9197 95.7254C98.9949 96.2685 99.9715 95.8934 100.483 95.4352C101.108 95.6369 101.811 96.0339 103.191 94.6421C104.878 94.9734 105.901 93.4383 106.191 92.8533C107.88 93.3561 108.441 92.1606 108.819 91.1466C109.951 92.0729 111.113 92.1606 112.101 91.3127C115.737 93.9896 119.673 96.9018 124.708 98.2672L90.811 98.2827ZM128.374 102.583V112.578C126.822 112.702 125.126 114.152 124.976 115.726H35.3278C35.1764 114.151 33.4814 112.702 31.929 112.578V102.583C33.5491 102.197 35.0951 100.82 35.4584 99.1498H71.694C73.4681 100.042 77.5153 101.483 80.2615 102.203C83.1665 101.416 86.0027 100.395 88.7426 99.1498H124.845C125.209 100.82 126.754 102.197 128.374 102.583ZM94.0252 89.1324L94.0161 75.4551C94.0143 73.7832 94.5062 72.1622 95.2819 70.6591C91.5319 70.2091 88.1842 68.4541 85.3011 66.0556H75.2407C72.3612 68.4541 69.0127 70.2091 65.2607 70.6591C66.0374 72.1612 66.5284 73.7832 66.5275 75.4551L66.5184 89.1324C66.5165 91.3657 66.1724 91.8111 64.9057 93.6792L64.9522 93.7258C69.5457 97.2825 74.7014 99.116 80.2713 100.245C85.6478 99.2948 91.2544 97.0844 95.5895 93.7258L95.6361 93.6792C94.3702 91.8101 94.0261 91.3657 94.0252 89.1324ZM80.2696 98.7619C75.3585 97.6384 71.1712 96.1233 66.8998 93.4018C67.9065 92.219 67.9932 90.4885 67.9804 89.1078L67.9859 75.5874C67.9859 74.2567 67.6337 72.8312 67.1919 71.5863C69.5548 71.4567 74.3006 68.8456 75.5812 67.5067H84.9625C86.2438 68.8447 90.9897 71.4567 93.3508 71.5863C92.909 72.8312 92.5576 74.2567 92.5576 75.5874L92.5631 89.1078C92.5485 90.4885 92.638 92.219 93.6437 93.4018C89.4491 96.0741 85.0546 97.6886 80.2696 98.7619ZM96.1371 92.0164C96.9713 89.4216 96.7751 86.8525 96.7241 84.0853C95.9811 84.454 96.159 84.4203 95.3888 84.1984L95.3569 89.156C95.3459 90.8555 95.6526 91.1666 96.1371 92.0164ZM101.579 82.3694C100.599 81.7808 99.8417 80.8353 99.0905 79.9928C98.5969 80.4109 98.3897 80.4492 97.7481 80.5624C97.9443 80.8299 100.164 84.0424 101.579 82.3694ZM99.6701 83.3159L99.3279 83.5231C99.8362 85.7317 101.359 87.5051 102.615 87.0943C101.947 86.1981 101.291 84.5243 100.888 83.4245C100.491 83.8936 99.9603 83.4729 99.6701 83.3159ZM107.157 76.6972C107.151 77.2886 106.887 77.3918 106.394 77.5861C106.804 78.0782 110.177 81.1081 111.26 79.4499C109.825 78.5527 108.486 77.7477 107.157 76.6972ZM114.093 78.4395C113.539 77.9841 110.504 76.5558 109.071 75.6496C108.834 76.2273 108.695 76.2664 108.144 76.5768C110.023 77.7888 112.563 80.1371 114.093 78.4395ZM108.763 80.0979C107.755 79.8177 106.1 78.3939 105.507 77.6647C105.329 77.9786 104.965 78.6239 104.368 78.5646C105.513 79.7062 107.808 81.7635 108.763 80.0979ZM103.54 78.7224C103.324 79.2208 102.283 79.4416 102.278 79.4471C102.643 79.8104 105.497 82.9774 106.491 81.2715C105.544 80.534 104.417 79.6378 103.54 78.7224ZM101.404 79.5C101.254 80.1654 100.508 80.1973 100.135 80.2138C100.498 80.7522 103.591 83.8014 104.389 82.2152C103.282 81.3673 102.268 80.462 101.404 79.5ZM96.6082 80.4675C96.4027 80.8983 95.4134 80.9375 95.3834 80.8845C95.6078 81.4257 97.5755 84.2906 98.9071 82.8322C98.6735 82.7163 96.6292 80.4227 96.6082 80.4675ZM96.004 79.9765L95.3888 79.1542L95.3906 80.2083C95.5832 80.2064 95.8469 80.1399 96.004 79.9765ZM98.2491 79.6917C98.2345 79.6607 97.916 79.0281 97.1602 78.4204C96.7934 79.031 96.453 78.9187 95.9592 78.8557C96.704 79.9527 97.3674 80.1919 98.2491 79.6917ZM100.618 79.3357C100.57 78.9515 99.6062 78.3848 99.1536 77.8281C99.1307 78.3619 98.658 78.3848 98.0857 78.4204C98.4544 78.7928 99.5469 80.1937 100.618 79.3357ZM102.506 78.5381C102.235 77.9996 101.518 77.6328 101.099 77.2084C101.025 77.8098 100.624 77.8362 99.9658 77.8928C100.46 78.3035 101.82 79.4672 102.506 78.5381ZM104.39 77.5186C103.923 77.3836 103.05 76.5987 102.718 76.3458C102.707 76.3377 102.675 76.6662 102.434 76.8332C102.206 76.9902 101.736 76.9729 101.598 76.9693C101.937 77.1974 103.42 78.999 104.39 77.5186ZM106.337 76.6534C106.337 76.0209 105.331 75.5747 104.968 75.3C104.831 76.0511 104.202 76.1296 103.492 76.0848C104.037 76.6324 105.864 77.5971 106.337 76.6534ZM108.376 75.247C107.815 74.823 107.269 74.3797 106.738 73.9182C106.365 74.6885 105.502 74.3361 105.24 74.7059C105.624 74.9312 107.702 76.9774 108.376 75.247ZM114.232 77.1317C114.301 76.9519 114.404 76.8907 114.54 76.752C114.654 76.6133 114.92 76.4252 114.976 76.3468C113.742 76.115 111.022 73.9949 110.214 73.2246C109.76 73.5395 109.086 73.8032 107.535 73.3797C109.573 74.9376 111.841 76.5348 114.232 77.1317ZM118.464 75.8037C118.742 74.8153 117.111 74.9713 114.717 73.1242C113.732 72.3037 112.653 71.2952 111.276 72.0627C111.045 72.217 111.059 72.6085 111.059 72.9179C112.733 74.6319 115.986 76.8715 118.464 75.8037ZM116.158 76.8131C119.064 79.5 122.846 82.5237 127.052 82.5237C127.531 82.2919 127.376 81.8904 127.299 81.5042C124.273 80.4492 121.057 78.5162 118.575 76.5201C116.721 76.8496 116.158 76.7793 116.158 76.8131ZM115.405 77.0549L114.772 77.6264L114.71 77.6729C114.726 77.6884 114.742 77.7185 114.772 77.734C115.034 78.0434 115.096 78.4139 115.096 78.9241C117.57 81.0316 119.868 82.7392 123.301 83.4008C123.494 83.3825 123.802 83.0923 123.838 82.8367C120.265 81.3647 117.703 79.5055 115.405 77.0549ZM122.72 84.0186C121.781 84.0424 121.23 83.598 120.403 83.2228C121.415 86.4418 124.075 88.2042 122.72 84.0186ZM119.173 82.7108C117.95 82.2015 116.344 81.0488 116.287 80.953C117.039 82.4881 119.665 88.2543 121.391 86.4208C120.497 85.4215 119.808 83.8744 119.173 82.7108ZM114.567 79.3996C114.108 79.8797 113.684 79.7794 113.033 79.8395C113.944 81.569 115.784 86.6544 118.397 85.9918C118.187 86.0748 114.982 80.3752 114.567 79.3996ZM112.214 79.8368C111.738 80.1836 111.212 80.7138 110.577 80.6344C111.434 81.9114 113.795 87.5799 116.001 86.0421C116.018 86.0266 113.815 84.1738 112.214 79.8368ZM109.627 80.6391C109.415 81.0836 109.048 81.2643 108.516 81.3492C109.796 84.8875 114.733 91.3173 118.146 91.6723C118.361 91.6723 119.221 91.5646 119.003 91.3638C117.02 90.0505 112.09 85.719 109.627 80.6391ZM107.699 81.4102L107.323 81.3409C107.1 81.7927 106.927 82.1906 106.399 82.363C109.298 89.2938 113.347 91.7307 114.308 90.421C111.276 88.038 109.025 85.0509 107.699 81.4102ZM105.565 82.4471C105.403 82.4471 105.262 82.3813 105.096 82.3329C105.048 82.3184 104.976 82.8933 104.32 83.1753C104.833 84.7086 108.957 92.7228 111.251 90.7505C108.811 88.6131 106.592 85.5283 105.565 82.4471ZM106.884 89.1989C106.74 89.9401 106.461 91.0233 106.355 91.8776C107.36 92.0209 107.791 91.2607 107.963 90.4046L106.884 89.1989ZM106.261 88.4743C105.193 86.9784 104.061 85.165 103.549 83.387C103.059 83.5131 102.276 83.2538 101.845 83.0294C102.362 85.4077 103.848 89.0072 106.261 88.4743ZM104.54 88.9808C104.237 90.5927 104.032 92.1413 103.439 93.619C105.706 93.6527 105.597 90.8838 106.046 89.2473C105.756 89.3103 105.125 89.3386 104.54 88.9808ZM103.807 88.6459C103.824 88.5756 103.465 88.3913 103.219 88.1274C103.017 87.9121 102.972 87.7323 102.957 87.745C102.807 87.872 102.192 87.8034 102.048 87.8172C102.302 88.404 101.324 94.3711 100.811 94.7552C102.918 95.8095 103.344 90.8199 103.807 88.6459ZM101.442 87.8081C100.757 87.4606 100.142 86.991 99.6255 86.4226C99.5807 89.1552 99.5616 92.5485 98.3513 95.0091C100.848 96.7184 101.296 89.1269 101.442 87.8081ZM98.6844 83.7038C98.5292 83.8927 97.57 84.1957 97.3848 84.015C97.5253 86.837 97.6787 90.1299 96.8052 92.8304C97.1511 93.0888 97.5061 93.3232 97.8876 93.5259C97.2871 94.0854 96.6774 94.6284 96.0176 95.1167C95.9428 95.1915 95.9318 95.2216 95.8789 95.3329C99.2905 96.4793 99.2695 85.4077 98.6844 83.7038ZM96.6027 83.5139C96.2303 83.0997 95.5832 82.208 95.3961 81.81L95.3979 83.3105C95.5631 83.6426 95.9409 83.6317 96.6027 83.5139ZM109.661 66.4161C107.693 65.8767 105.838 65.069 103.752 65.1903C102.445 65.2916 100.525 66.3595 100.434 67.9C100.75 71.8546 100.393 73.334 95.5868 74.1582C95.3395 75.487 95.3834 76.7411 95.3851 78.0899C95.5923 78.1602 95.8624 78.2342 96.1709 78.1511C96.8746 77.9613 95.9984 77.3644 95.7411 76.4736C95.9263 76.397 96.1316 76.2729 96.285 76.4052C96.3955 76.4472 96.6829 76.9318 97.1356 77.474C97.5564 77.9805 98.8003 77.7897 98.2946 77.2247C97.9451 76.8351 97.3035 76.1012 97.3447 75.8804C97.6942 75.5537 98.0099 75.7097 98.2409 76.0191C98.6652 76.5503 99.5186 77.6109 100.328 77.0723C100.765 76.878 99.4548 75.4469 99.3124 75.2407C99.2448 75.143 99.5743 74.8299 99.6656 74.9102C100.395 75.55 101.095 76.7146 102.097 76.1195C102.389 75.6422 102.048 75.2187 100.945 74.3142C100.961 74.2987 101.46 73.91 101.474 73.8953C101.912 74.2348 103.459 75.9078 104.18 75.1494C104.891 74.4038 102.455 73.4883 102.204 73.0357C102.25 72.9735 102.582 72.6213 102.66 72.5756C102.926 72.7353 105.549 74.715 106.335 72.9773C106.166 72.8841 105.38 72.5949 103.909 71.6483C103.676 71.4986 103.941 71.1381 104.111 70.9839C109.207 74.0431 110.438 72.3822 110.167 71.8956C109.183 71.652 107.953 71.4831 104.93 70.0111C104.853 69.7025 105.038 69.4087 105.115 69.1768C105.562 69.416 112.907 72.8476 112.748 70.0886C110.441 69.7209 108.222 69.249 106.197 67.8791C105.965 67.6482 106.259 67.1225 106.49 67.0448C108.557 68.2851 111.452 69.5538 113.904 68.7598C113.487 66.8743 111.23 66.8459 109.661 66.4161ZM115.526 69.74C114.813 69.4343 114.292 69.8458 113.609 69.8458C113.841 70.1553 113.609 70.7166 113.456 71.0251C116.729 73.4801 116.643 73.4354 118.463 74.2193C119.243 74.5607 120.118 74.3609 120.703 74.128C120.031 71.4184 117.765 70.8589 115.526 69.74ZM129.879 80.4072C127.892 77.6491 125.002 76.3605 121.989 75.049C121.225 75.363 120.187 75.4167 119.397 75.3685C119.492 75.6222 119.426 75.9488 119.229 76.1779C119.651 76.4736 130.661 83.7001 129.879 80.4072ZM156.171 91.3876C158.257 91.5646 159.532 89.9446 158.909 89.3915C158.642 88.77 157.656 88.7563 157.278 88.739C146.932 88.2607 137.37 85.5629 130.729 81.1164C130.221 82.6341 129.057 82.1513 128.148 81.758C128.318 82.1596 128.164 82.4753 127.884 82.9764C135.092 88.0938 146.541 91.3784 156.171 91.3876ZM154.102 92.3568C143.727 92.0428 135.599 89.0237 126.899 83.4664C126.542 83.2967 125.726 83.3753 124.715 83.0339C124.694 83.0275 124.165 83.8544 123.791 83.9702C123.766 83.9785 123.923 84.7534 124.042 85.0198C129.014 90.222 153.159 97.7279 154.102 92.3568ZM147.452 94.9989C138.557 93.8973 130.82 90.8198 123.81 86.3478C123.776 86.8051 123.646 88.3017 121.817 86.8378C121.458 87.5187 120.775 87.338 120.699 87.3216C122.084 89.8223 145.066 100.024 147.452 94.9989ZM139.093 96.5377C131.477 94.7106 124.859 92.0657 118.62 86.6635C117.608 86.847 116.71 86.1215 115.457 87.0761C119.184 91.915 133.814 100.86 139.093 96.5377ZM130.886 97.767C125.417 96.1708 123.611 94.5692 119.719 92.1733C117.964 93.2731 116.184 92.1131 114.902 91.1392C114.794 91.2178 114.002 91.2899 113.926 91.5062C119.118 95.5 125.221 99.0183 130.886 97.767ZM93.2475 52.4367C93.3642 52.4372 93.4759 52.4839 93.5584 52.5665C93.6409 52.649 93.6873 52.7608 93.6875 52.8775C93.687 52.9945 93.6402 53.1065 93.5575 53.189C93.4747 53.2716 93.3627 53.3181 93.2458 53.3184H93.2421C93.1252 53.3186 93.0129 53.2724 92.9302 53.1899C92.8473 53.1074 92.8006 52.9954 92.8004 52.8785C92.8001 52.7615 92.8464 52.6494 92.9288 52.5665C93.0113 52.4836 93.1233 52.437 93.2403 52.4367H93.2475ZM67.1836 52.4367C67.2956 52.4442 67.4006 52.4939 67.4772 52.576C67.5537 52.658 67.5963 52.7662 67.5961 52.8785C67.5959 52.9906 67.5528 53.0986 67.476 53.1803C67.399 53.2621 67.2938 53.3114 67.1817 53.3184H67.1791C67.0671 53.3114 66.9619 53.2621 66.8849 53.1803C66.808 53.0986 66.765 52.9906 66.7647 52.8785C66.7646 52.7662 66.8071 52.658 66.8837 52.576C66.9603 52.4939 67.0652 52.4442 67.1772 52.4367H67.1836ZM79.1733 46.1484V45.5598H79.9199V44.8123H80.5086V45.5598H81.256V46.1484H80.5086V46.8959H79.9199V46.1484H79.1733ZM80.2146 47.6188C80.7413 47.6188 81.1712 48.0477 81.1712 48.5744C81.1706 48.8278 81.0697 49.0708 80.8904 49.25C80.7112 49.4294 80.4682 49.5304 80.2146 49.5308C79.97 49.5177 79.7396 49.4113 79.571 49.2333C79.4025 49.0556 79.3085 48.8198 79.3085 48.5748C79.3085 48.3297 79.4025 48.094 79.571 47.9162C79.7396 47.7383 79.97 47.6319 80.2146 47.6188ZM76.3249 58.2769V57.6124H84.1026V58.2769H76.3249ZM79.7437 56.7892L77.9977 50.2865C78.3227 50.2865 78.6458 50.302 78.9707 50.302L80.2129 55.0989L81.4577 50.302C81.7817 50.302 82.1067 50.2865 82.4306 50.2865L80.6847 56.7892H79.7437ZM80.2149 52.3609L79.8206 50.3166H80.6091L80.2149 52.3609ZM83.5953 49.4514L81.5684 56.7892H82.4755L84.6313 49.4514H83.5953ZM85.3513 50.1158C84.6897 52.3491 84.0288 54.5687 83.3781 56.8047C86.1308 56.7636 87.7654 54.8297 87.8274 53.0318C87.8712 51.7376 87.1037 50.5128 85.3513 50.1158ZM76.8343 49.4514L78.8595 56.7892H77.9542L75.7976 49.4514H76.8343ZM75.0775 50.1158C75.7392 52.3491 76.4008 54.5687 77.0534 56.8047C74.2998 56.7636 72.6652 54.8297 72.6032 53.0308C72.5576 51.7367 73.3261 50.5128 75.0775 50.1158ZM93.381 50.9499V51.2877H93.7177V51.5569H93.381V51.8945H93.1063V51.5569H92.7695V51.2877H93.1063V50.9499H93.381ZM93.4349 53.8641L93.2441 54.9046L93.0534 53.8641H93.4349ZM93.244 56.3795C93.4293 55.5379 93.6556 54.7065 93.8518 53.8677H94.3474L93.5151 57.2793H92.9729L92.1406 53.8677H92.6361C92.8323 54.7065 93.0642 55.5371 93.244 56.3795ZM95.2318 57.8178V58.3535H91.257L91.2516 57.8178C91.2516 57.8178 93.9075 57.816 95.2318 57.8178ZM91.5217 57.2693L90.5808 53.7911C89.6381 53.7911 89.1954 54.5551 89.2154 55.3719C89.2437 56.4215 90.0369 57.5576 91.5217 57.2693ZM91.5154 53.4352H91.0143L92.0411 57.2784H92.4682L91.5154 53.4352ZM94.9662 57.2693L95.909 53.7911C96.85 53.7911 97.2944 54.5551 97.2725 55.3719C97.2442 56.4215 96.4511 57.5576 94.9662 57.2693ZM94.9753 53.4352H95.4755L94.4488 57.2784H94.0216L94.9753 53.4352ZM67.3169 50.95V51.2877H67.6547V51.5569H67.3169V51.8945H67.0441V51.5569H66.7072V51.2877H67.0441V50.95H67.3169ZM67.3708 53.8641L67.18 54.9046L66.9893 53.8641H67.3708ZM67.18 56.3795C67.3662 55.5379 67.5916 54.7065 67.7887 53.8677H68.2834L67.4511 57.2793H66.9089L66.0766 53.8677H66.5722C66.7685 54.7065 67.0002 55.5371 67.18 56.3795ZM69.1678 57.8178L69.1697 58.3535H65.1922L65.1932 57.8178H69.1678ZM65.4588 57.2693L64.5159 53.7911C63.5567 53.7911 63.116 54.5825 63.1542 55.4148C63.2017 56.4525 63.9948 57.554 65.4588 57.2693ZM65.4496 53.4352H64.9504L65.9762 57.2784H66.4034L65.4496 53.4352ZM68.9013 57.2693L69.8449 53.7911C70.7878 53.7911 71.2295 54.5551 71.2076 55.3719C71.1811 56.4215 70.3871 57.5578 68.9013 57.2693ZM68.9105 53.4352H69.4105L68.3848 57.2784H67.9568L68.9105 53.4352ZM69.4152 67.7011L69.698 67.9036L69.3649 68.0616L69.4152 67.7011ZM75.4835 64.6172H74.3874C74.2363 64.7999 74.0765 64.975 73.9082 65.1419C73.7686 64.9877 73.691 64.7404 73.7065 64.4155C74.3254 64.0449 74.9331 64.2192 75.4835 64.6172ZM74.2405 63.6451C73.4199 64.3288 71.7032 63.2993 71.5098 62.8384C72.1212 62.8822 72.259 62.6212 72.5337 62.5719C73.0968 62.4733 74.0269 63.187 74.2405 63.6451ZM71.7452 66.4397L72.0692 66.5319C72.0098 66.5319 71.799 66.699 71.7297 66.7327C71.7662 66.6393 71.7715 66.5366 71.7452 66.4397ZM71.2022 65.3364C72.238 65.5217 72.6059 64.9531 72.4471 64.3132C72.7766 64.5058 72.9873 64.7385 73.4747 65.5289L72.7646 66.0537C72.4051 66.0026 71.5818 65.6896 71.2022 65.3364ZM69.019 65.8384C69.4042 65.7225 69.8523 65.4121 69.8478 64.8801C70.8398 65.3026 71.1939 66.8276 70.5879 67.5204C69.9226 67.9019 69.0993 66.4809 69.019 65.8384ZM68.0407 62.8731C68.6723 62.7307 68.8831 62.0617 68.9725 61.7305C69.4069 62.0042 70.1362 62.7763 69.8578 63.334C69.2746 63.6434 68.518 63.1925 68.0407 62.8731ZM69.5612 63.9145C70.2538 63.9145 70.5979 63.4536 70.4118 62.7808C71.5106 63.1697 71.9478 64.0942 71.8145 64.6336C71.402 65.1648 69.8733 64.5378 69.5612 63.9145ZM72.3484 62.0681C71.5644 62.6339 70.5349 62.581 69.2572 61.2029C70.4035 60.9948 71.5143 61.2987 72.3484 62.0681ZM72.1467 59.5656C71.5873 60.397 70.7896 60.7575 69.7674 60.6307C68.3574 60.428 66.5823 60.2857 65.2461 60.5494L65.0754 60.146C65.6312 58.3472 70.5659 60.042 72.1467 59.5656ZM63.3724 63.9829C64.1043 63.9829 65.1028 63.7419 65.4733 63.2893C65.4505 62.989 64.8071 62.4842 64.5461 62.3538C63.4088 62.0326 62.1685 61.7724 61.1226 62.5317C60.763 60.9656 63.1716 60.5558 64.5625 60.5558C65.0225 61.9367 66.3066 62.8037 67.1426 63.9391C66.9555 63.9746 63.9848 64.7376 63.3724 63.9829ZM67.2959 62.7791C66.4142 62.153 66.1633 61.9258 65.5153 61.0486C65.624 61.0331 65.7508 61.0331 65.8584 61.0176C66.1305 61.3972 66.387 61.5908 66.7392 61.7751L67.4036 60.9875C67.7048 61.0095 68.0169 61.0002 68.3154 61.0496C68.2861 62.1549 67.9887 62.2825 67.2959 62.7791ZM67.6537 63.9317C68.0526 63.7958 68.0708 63.8578 68.1885 63.4544L68.7791 63.9372C69.0254 64.1837 69.4033 64.8873 69.0929 65.4331C68.1912 65.3811 67.8855 64.6309 67.6537 63.9317ZM64.2877 92.0829C63.4536 89.4883 63.6508 86.8817 63.7009 84.1135C64.4457 84.3674 64.2677 84.2468 65.038 84.1409L65.0306 89.1779C65.0289 90.6401 64.8656 90.819 64.2877 92.0829ZM58.8465 82.3978C59.8267 81.8091 60.5832 80.8635 61.3343 80.0212C61.829 80.4382 62.0353 80.4766 62.6778 80.5898C62.4816 80.8581 60.2611 84.0706 58.8465 82.3978ZM60.7549 83.3441L61.0961 83.5513C60.5878 85.7601 59.0664 87.5342 57.8087 87.1227C58.4768 86.2264 59.1331 84.5526 59.5365 83.4528C59.9344 83.922 60.4655 83.5012 60.7549 83.3441ZM53.2692 76.7256C53.2746 77.3169 53.5375 77.4192 54.0322 77.6135C53.6224 78.1054 50.2482 81.1355 49.1657 79.4773C50.5987 78.581 51.9384 77.7751 53.2692 76.7256ZM46.3329 78.4678C46.8878 78.0115 49.9206 76.584 51.3535 75.6778C51.5898 76.2555 51.7304 76.2948 52.2807 76.6042C50.4024 77.8181 47.8625 80.1663 46.3329 78.4678ZM51.6628 80.127C52.6704 79.8469 54.3251 78.423 54.9183 77.6939C55.0973 78.0079 55.4614 78.6531 56.0574 78.5937C54.912 79.7346 52.6175 81.7917 51.6628 80.127ZM56.8852 78.7508C57.1015 79.2491 58.141 79.4709 58.1465 79.4754C57.7832 79.8387 54.9284 83.0056 53.9335 81.3008C54.881 80.5633 56.009 79.6661 56.8852 78.7508ZM59.0217 79.5283C59.1713 80.1937 59.918 80.2257 60.2912 80.242C59.928 80.7805 56.834 83.8298 56.0355 82.2426C57.1425 81.3957 58.1582 80.4903 59.0217 79.5283ZM63.8168 80.4966C64.0222 80.9274 65.0125 80.9667 65.0416 80.9129C64.8162 81.4541 62.8494 84.319 61.5178 82.8613C61.7524 82.7454 63.7958 80.452 63.8168 80.4966ZM64.421 80.0047L65.037 79.1824L65.0361 80.2374C64.8427 80.2357 64.578 80.1681 64.421 80.0047ZM62.175 79.72C62.1914 79.6881 62.5099 79.0565 63.2656 78.4487C63.6325 79.0583 63.9729 78.947 64.4667 78.8841C63.7219 79.9801 63.0576 80.2202 62.175 79.72ZM59.8057 79.365C59.8541 78.9807 60.8188 78.4139 61.2706 77.8563C61.2952 78.3912 61.767 78.413 62.3383 78.4487C61.9714 78.821 60.8781 80.2219 59.8057 79.365ZM57.9192 78.5673C58.1894 78.0288 58.9076 77.6619 59.3256 77.2385C59.3995 77.8398 59.802 77.8663 60.46 77.922C59.9654 78.3328 58.6046 79.4964 57.9192 78.5673ZM56.0345 77.547C56.5028 77.4118 57.3762 76.6269 57.7074 76.3742C57.7175 76.3659 57.7486 76.6946 57.9922 76.8625C58.2204 77.0194 58.6885 77.0021 58.8291 76.9984C58.4877 77.2256 57.0047 79.0281 56.0345 77.547ZM54.0887 76.6827C54.0887 76.0502 55.0944 75.6038 55.4578 75.3292C55.5937 76.0802 56.2234 76.1596 56.9334 76.1141C56.3869 76.6617 54.5596 77.6254 54.0887 76.6827ZM52.049 75.2762C52.6097 74.8521 53.1559 74.4089 53.6863 73.9474C54.0587 74.7176 54.923 74.3664 55.1848 74.735C54.8006 74.9596 52.7225 77.0067 52.049 75.2762ZM46.1942 77.1609C46.1229 76.981 46.0207 76.9199 45.8857 76.7812C45.7707 76.6424 45.5051 76.4545 45.4503 76.3751C46.6834 76.1432 49.4031 74.024 50.2098 73.2529C50.6654 73.5667 51.3389 73.8306 52.8913 73.4079C50.8533 74.9658 48.5844 76.563 46.1942 77.1609ZM41.9621 75.832C41.6837 74.8437 43.3157 74.9987 45.7086 73.1524C46.6952 72.3319 47.7721 71.3234 49.1485 72.0901C49.3803 72.2444 49.3665 72.6359 49.3665 72.9453C47.6927 74.6601 44.4391 76.8999 41.9621 75.832ZM44.2656 76.8415C41.3606 79.5283 37.5777 82.552 33.3721 82.552C32.8929 82.321 33.0472 81.9186 33.1248 81.5335C36.1503 80.4784 39.3664 78.5453 41.848 76.5485C43.7044 76.878 44.2656 76.8077 44.2656 76.8415ZM45.0204 77.0833L45.6538 77.6546L45.715 77.7012C45.7003 77.7167 45.6838 77.7468 45.6538 77.7632C45.391 78.0718 45.3298 78.4432 45.3298 78.9525C42.8546 81.0598 40.5574 82.7674 37.125 83.43C36.9314 83.4118 36.6238 83.1206 36.5883 82.8651C40.1614 81.3938 42.7232 79.5338 45.0204 77.0833ZM37.7053 84.047C38.6454 84.0706 39.1957 83.6271 40.0226 83.2511C39.0095 86.471 36.351 88.2333 37.7053 84.047ZM41.251 82.739C42.4741 82.2299 44.0804 81.0781 44.1388 80.9813C43.3858 82.5173 40.7601 88.2826 39.0351 86.45C39.9286 85.4506 40.6168 83.9027 41.251 82.739ZM45.8573 79.4279C46.3164 79.9079 46.7407 79.8085 47.3906 79.8678C46.4788 81.5983 44.6398 86.6828 42.0268 86.0202C42.2376 86.1032 45.442 80.4036 45.8573 79.4279ZM48.2111 79.8652C48.6875 80.2119 49.2141 80.7422 49.8475 80.6628C48.9922 81.9396 46.6303 87.6072 44.4235 86.0712C44.407 86.0557 46.6103 84.2022 48.2111 79.8652ZM50.7986 80.6673C51.0094 81.1118 51.3773 81.2925 51.9075 81.3774C50.6279 84.9158 45.6931 91.3455 42.2788 91.7006C42.0634 91.7006 41.2046 91.5929 41.4218 91.3921C43.4051 90.0787 48.3353 85.7482 50.7986 80.6673ZM52.7251 81.4386L53.1029 81.3692C53.3247 81.821 53.4981 82.2189 54.0266 82.3914C51.1271 89.3222 47.0784 91.7599 46.1173 90.4492C49.1484 88.0682 51.3999 85.0791 52.7251 81.4386ZM54.86 82.4753C55.0224 82.4753 55.1629 82.4106 55.33 82.3613C55.3784 82.3475 55.4477 82.9216 56.1058 83.2037C55.592 84.736 51.4675 92.751 49.1731 90.7787C51.6145 88.6422 53.8322 85.5565 54.86 82.4753ZM53.5402 89.2273C53.6853 89.9683 53.9638 91.0517 54.0704 91.9069C53.0656 92.0493 52.6348 91.2889 52.4624 90.4329L53.5402 89.2273ZM54.1655 88.5026C55.2323 87.0068 56.365 85.1933 56.876 83.4154C57.3671 83.5413 58.1482 83.2821 58.58 83.0576C58.0625 85.436 56.5767 89.0356 54.1655 88.5026ZM55.8858 89.0091C56.1879 90.6209 56.3932 92.1697 56.9873 93.6472C54.7194 93.6811 54.828 90.912 54.3789 89.2756C54.8969 89.3746 55.4332 89.2797 55.8858 89.0091ZM56.6177 88.6751C56.6022 88.6048 56.96 88.4195 57.2064 88.1558C57.4072 87.9404 57.4537 87.7607 57.4684 87.7733C57.6189 87.9002 58.234 87.8318 58.3792 87.8455C58.1227 88.4323 59.1021 94.3994 59.6159 94.7836C57.5066 95.8367 57.0814 90.8491 56.6177 88.6751ZM58.9834 87.8363C59.6683 87.4888 60.284 87.0193 60.8005 86.451C60.8443 89.1834 60.8643 92.5767 62.0755 95.0373C59.5757 96.7467 59.1303 89.1552 58.9834 87.8363ZM61.7405 83.733C61.8948 83.9219 62.8559 84.2249 63.0411 84.0442C62.8997 86.8661 62.7472 90.1591 63.6198 92.8597C63.278 93.1194 62.9164 93.352 62.5383 93.5551C63.1379 94.1145 63.7476 94.6576 64.4073 95.1469C64.4831 95.2208 64.4941 95.2509 64.5461 95.3622C61.1345 96.5076 61.1555 85.437 61.7405 83.733ZM63.8224 83.5432C64.1956 83.1288 64.8418 82.2371 65.0289 81.8401L65.028 83.3405C64.8618 83.671 64.485 83.6619 63.8224 83.5432ZM50.7648 66.4444C52.7316 65.9049 54.588 65.0973 56.6725 65.2187C57.9794 65.3208 59.8987 66.3877 59.99 67.9284C59.6752 71.8829 60.0329 73.3624 64.8372 74.1864C65.0854 75.5154 65.0408 76.7702 65.0389 78.1183C64.8336 78.1895 64.5625 78.2634 64.254 78.1794C63.5495 77.9895 64.4257 77.3927 64.682 76.5029C64.4968 76.4262 64.2924 76.302 64.1391 76.4335C64.0277 76.4755 63.7411 76.96 63.2893 77.5022C62.8678 78.0088 61.6228 77.8189 62.1303 77.253C62.4799 76.8634 63.1215 76.1296 63.0803 75.9087C62.7308 75.5819 62.415 75.738 62.184 76.0475C61.7598 76.5785 60.9063 77.6391 60.0978 77.1007C59.6597 76.9063 60.9702 75.4751 61.1127 75.2689C61.1802 75.1713 60.8507 74.8582 60.7594 74.9386C60.0312 75.5783 59.3302 76.7428 58.3291 76.1479C58.0351 75.6705 58.3765 75.2479 59.479 74.3426C59.4635 74.327 58.966 73.9391 58.9496 73.9236C58.5115 74.2632 56.9665 75.9361 56.2445 75.1777C55.5345 74.431 57.9703 73.5157 58.2223 73.0639C58.1756 73.0028 57.8425 72.6495 57.7659 72.6039C57.4994 72.7637 54.8755 74.7441 54.0897 73.0055C54.2594 72.9124 55.0443 72.6231 56.5147 71.6767C56.7483 71.526 56.4837 71.1665 56.3139 71.0122C51.2175 74.0705 49.9873 72.4104 50.2583 71.924C51.2431 71.6803 52.4715 71.5115 55.4952 70.0394C55.5718 69.7309 55.3865 69.437 55.309 69.2052C54.8617 69.4434 47.5175 72.875 47.6772 70.1169C49.9818 69.7491 52.2032 69.2782 54.2275 67.9082C54.4593 67.6764 54.1655 67.1507 53.9345 67.0732C51.8682 68.3144 48.9733 69.5821 46.5191 68.7881C46.938 66.9034 49.196 66.8741 50.7648 66.4444ZM44.9 69.7683C45.6129 69.4625 46.1322 69.8742 46.8157 69.8742C46.584 70.1835 46.8157 70.7449 46.97 71.0533C43.6962 73.5083 43.783 73.4637 41.9621 74.2477C41.1808 74.5898 40.3057 74.3891 39.7216 74.1573C40.3951 71.4466 42.6595 70.888 44.9 69.7683ZM30.5456 80.4355C32.5343 77.6774 35.422 76.3887 38.4365 75.0772C39.2014 75.3912 40.2371 75.445 41.0285 75.3967C40.9336 75.6504 40.9984 75.9772 41.1955 76.2053C40.7748 76.502 29.7635 83.7284 30.5456 80.4355ZM4.25345 91.4167C2.16801 91.5938 0.89301 89.9738 1.51545 89.4207C1.78285 88.8001 2.76946 88.7855 3.14729 88.7681C13.4924 88.29 23.0562 85.592 29.6958 81.1456C30.2042 82.6634 31.3688 82.1806 32.2787 81.7872C32.108 82.1887 32.2605 82.5046 32.5407 83.0056C25.3343 88.122 13.8848 91.4067 4.25345 91.4167ZM6.32333 92.385C16.6995 92.0712 24.8286 89.052 33.5272 83.4948C33.8841 83.325 34.7 83.4035 35.7112 83.0622C35.7313 83.0549 36.2597 83.8827 36.6339 83.9995C36.6577 84.0067 36.5025 84.7816 36.383 85.0481C31.4099 90.2513 7.26612 97.7561 6.32333 92.385ZM12.974 95.0282C21.8688 93.9266 29.6045 90.85 36.6147 86.3769C36.6495 86.8342 36.779 88.331 38.6089 86.868C38.9668 87.5488 39.6494 87.3673 39.726 87.3508C38.3416 89.8506 15.3588 100.053 12.974 95.0282ZM21.3332 96.566C28.9466 94.7389 35.5653 92.0939 41.8061 86.6928C42.8173 86.8752 43.7145 86.1506 44.9686 87.1043C41.2421 91.9434 26.6112 100.889 21.3332 96.566ZM29.5388 97.7954C35.0085 96.1991 36.8136 94.5974 40.7062 92.2016C42.4612 93.3023 44.2428 92.1414 45.5241 91.1676C45.6318 91.246 46.4232 91.3181 46.5007 91.5345C41.3077 95.5292 35.2038 99.0466 29.5388 97.7954ZM91.0261 67.701L90.7432 67.9036L91.0745 68.0615L91.0261 67.701ZM84.9588 64.6172H86.0548C86.1936 64.7869 86.3469 64.9567 86.5322 65.1419C86.6709 64.9877 86.7494 64.7404 86.7339 64.4155C86.1159 64.0449 85.5081 64.2192 84.9588 64.6172ZM86.2008 63.6451C87.0204 64.3287 88.7371 63.2993 88.9298 62.8383C88.3182 62.8822 88.1831 62.6211 87.9067 62.5719C87.3453 62.4733 86.4153 63.187 86.2008 63.6451ZM88.697 66.4397L88.373 66.5319C88.4332 66.5319 88.6441 66.6989 88.7116 66.7327C88.6755 66.6392 88.6703 66.5365 88.697 66.4397ZM89.2381 65.3363C88.2023 65.5216 87.8354 64.9531 87.9942 64.3132C87.6647 64.5058 87.4539 64.7385 86.9656 65.5289L87.6766 66.0537C88.0353 66.0026 88.8585 65.6896 89.2381 65.3363ZM91.424 65.8384C91.037 65.7225 90.588 65.4121 90.5935 64.8799C89.6024 65.3026 89.2473 66.8276 89.8533 67.5204C90.5187 67.9019 91.34 66.4809 91.424 65.8384ZM92.3987 62.8731C91.7681 62.7307 91.5573 62.0617 91.4678 61.7303C91.0325 62.0042 90.3041 62.7763 90.5816 63.334C91.1676 63.6434 91.9232 63.1925 92.3987 62.8731ZM90.8801 63.9145C90.1865 63.9145 89.8424 63.4534 90.0277 62.7808C88.9298 63.1697 88.4925 64.0942 88.6249 64.6336C89.0392 65.1648 90.568 64.5378 90.8801 63.9145ZM88.0927 62.0681C88.8768 62.6339 89.9071 62.581 91.1839 61.2029C90.0368 60.9948 88.9269 61.2987 88.0927 62.0681ZM88.2936 59.5656C88.8549 60.397 89.6516 60.7575 90.6729 60.6307C92.083 60.428 93.8581 60.2857 95.1933 60.5494L95.3659 60.146C94.8091 58.3471 89.8752 60.042 88.2936 59.5656ZM97.0689 63.9829C96.336 63.9829 95.3385 63.7419 94.967 63.2892C94.9899 62.989 95.6332 62.4842 95.8942 62.3538C97.0315 62.0324 98.2718 61.7724 99.3185 62.5317C99.6773 60.9656 97.2706 60.5558 95.8778 60.5558C95.4179 61.9367 94.1347 62.8037 93.2987 63.9391C93.4866 63.9746 96.4565 64.7376 97.0689 63.9829ZM93.1444 62.7791C94.0269 62.153 94.2779 61.9258 94.9269 61.0486C94.8182 61.0331 94.6895 61.0331 94.5828 61.0176C94.3593 61.3424 94.0553 61.6035 93.7002 61.7751L93.0367 60.9875C92.7355 61.0093 92.4234 61.0002 92.1259 61.0496C92.155 62.1547 92.4526 62.2825 93.1444 62.7791ZM92.7875 63.9317C92.3877 63.7958 92.3705 63.8578 92.2527 63.4544L91.6614 63.9372C91.4168 64.1837 91.0389 64.8873 91.3474 65.4331C92.2491 65.3811 92.5539 64.6308 92.7875 63.9317ZM74.599 72.7244V93.1481H77.5214V83.6919H85.7299V72.7244H74.599ZM85.7299 88.969V87.5278H81.4303V93.1481H85.7299V91.6897H82.9417V88.969H85.7299ZM80.4473 86.5559H85.7299V84.6731H78.5006V93.1481H80.4473V86.5559ZM82.8833 80.7357H77.5214V75.5509H82.8833V80.7357Z" fill="#042E4E"/>
</g>
</g>
</g>
<defs>
<clipPath id="clip0_170_1551">
<rect width="160.412" height="162" fill="white"/>
</clipPath>
<clipPath id="clip1_170_1551">
<rect width="160.412" height="161.738" fill="white"/>
</clipPath>
<clipPath id="clip2_170_1551">
<rect width="160.401" height="161.738" fill="white" transform="translate(0.00585938)"/>
</clipPath>
</defs>
</svg>
