<svg width="153" height="155" viewBox="0 0 153 155" fill="none" xmlns="http://www.w3.org/2000/svg">
<g opacity="0.6" clip-path="url(#clip0_170_1525)">
<g clip-path="url(#clip1_170_1525)">
<g clip-path="url(#clip2_170_1525)">
<mask id="mask0_170_1525" style="mask-type:luminance" maskUnits="userSpaceOnUse" x="0" y="61" width="153" height="32">
<path d="M152.995 61.1953H0.00488281V92.9769H152.995V61.1953Z" fill="white"/>
</mask>
<g mask="url(#mask0_170_1525)">
<path fill-rule="evenodd" clip-rule="evenodd" d="M9.46135 61.1953H22.332C27.5435 61.1953 31.7859 65.4377 31.7852 70.6505V83.5218C31.7852 88.7339 27.5428 92.9769 22.3313 92.9769H9.46135C4.24528 92.9769 0.00488281 88.7339 0.00488281 83.5218V70.6505C0.00488281 65.4377 4.24528 61.1953 9.46135 61.1953ZM25.9165 81.1337L25.9283 80.9921H28.1688V82.0032C28.1688 83.6694 27.98 84.6825 27.5171 85.4988C26.9945 86.4186 25.9768 86.9911 24.8595 86.9911C23.7862 86.9911 22.7881 86.4679 22.122 85.5545C21.7102 84.9886 21.366 84.2325 21.0243 83.1264C20.2107 84.2471 19.3497 85.1099 18.4061 85.7329C16.9458 86.6987 15.3709 87.1892 13.7206 87.1892C10.8879 87.1892 8.72543 86.2744 6.91701 84.3106C5.18335 82.4313 4.30405 79.9371 4.30405 76.9006C4.30405 74.1742 5.2299 71.7226 6.98258 69.8118C8.74378 67.8894 10.9725 66.915 13.6071 66.915C15.5158 66.915 17.0967 67.5306 18.4409 68.7942C19.212 69.52 19.9063 70.5528 20.3411 71.4818C20.364 71.5298 20.3863 71.5796 20.408 71.6301C20.8428 69.5634 21.3247 67.2913 21.3247 67.2913H26.542C26.542 67.2913 23.7927 76.9806 22.9016 80.0053C23.2164 80.8715 23.5271 81.3494 23.8727 81.7475C24.1606 82.0806 24.5134 82.2432 24.9519 82.2432C25.5257 82.2432 25.8713 81.6853 25.9165 81.1337ZM14.1959 84.6981C15.3591 84.6981 16.3919 84.0871 17.1826 82.9291C17.9603 81.7921 18.6002 79.8184 19.2546 76.5537C18.7333 74.1388 18.0056 72.2602 17.1446 71.1232C16.3414 70.0636 15.4175 69.5719 14.234 69.5719C12.9042 69.5719 11.918 70.1581 11.1312 71.4138C10.2939 72.7513 9.86896 74.6246 9.86896 76.9818C9.86896 79.5528 10.2696 81.5219 11.061 82.836C11.8157 84.091 12.8406 84.6981 14.1959 84.6981Z" fill="#042E4E"/>
<path d="M47.6965 67.7506C47.3358 66.1265 46.3117 64.9922 44.0639 64.9922C41.9493 64.9922 40.7907 66.1265 40.43 67.7506L38.798 75.1023H40.5428C40.9409 75.1023 41.3368 74.7849 41.4221 74.3961L41.752 72.9005H46.3753L46.7058 74.3961C46.7909 74.7843 47.1864 75.1023 47.5843 75.1023H49.3298L47.6965 67.7506ZM42.209 70.8285L42.784 68.2247C42.8764 67.8038 43.2043 67.1606 44.0645 67.1606C44.9242 67.1606 45.2513 67.8031 45.3452 68.2247L45.9195 70.8285H42.209Z" fill="#042E4E"/>
<path d="M53.631 67.4494H57.5232V75.104H59.9322V65.2324H52.6664C51.8724 65.2324 51.2207 65.8829 51.2207 66.6783V71.6668C51.2207 72.3343 50.9132 72.7591 50.3787 72.8661L49.8849 72.984L50.3322 75.1046H50.7905C52.4389 75.1046 53.631 73.8778 53.631 71.7914V67.4494Z" fill="#042E4E"/>
<path d="M80.8727 65.2314H79.9946V64.084H78.3082C77.9103 64.084 77.5851 64.4072 77.5851 64.8058V65.2314H76.707C73.7288 65.2314 71.8673 67.2615 71.8673 70.1669C71.8673 73.0729 73.7288 75.103 76.707 75.103H77.5851V76.2996H79.2715C79.6694 76.2996 79.9946 75.9744 79.9946 75.5784V75.103H80.8727C83.8509 75.103 85.7118 73.0729 85.7118 70.1669C85.7118 67.2615 83.8509 65.2314 80.8727 65.2314ZM76.707 72.9227C75.0573 72.9227 74.277 71.879 74.277 70.1669C74.277 68.4562 75.0573 67.4123 76.707 67.4123H77.5851V72.9227H76.707ZM80.8727 72.9227H79.9946V67.4123H80.8727C82.5231 67.4123 83.3008 68.4562 83.3008 70.1669C83.3008 71.879 82.5224 72.9227 80.8727 72.9227Z" fill="#042E4E"/>
<path d="M67.4088 67.7346H63.9507V65.2324H61.541V74.3807C61.541 74.7781 61.8669 75.1033 62.2643 75.1033H67.4088C69.5098 75.1033 71.0913 73.5204 71.0913 71.419C71.0913 69.3181 69.7641 67.7346 67.4088 67.7346ZM67.4088 72.887H63.9507V69.9509H67.4088C67.9963 69.9509 68.6822 70.4767 68.6822 71.4183C68.6822 72.3592 67.9963 72.887 67.4088 72.887Z" fill="#042E4E"/>
<path d="M94.6986 67.7506C94.3367 66.1265 93.3132 64.9922 91.0647 64.9922C88.9521 64.9922 87.7928 66.1265 87.431 67.7506L85.7988 75.1023H87.545C87.9417 75.1023 88.3385 74.7849 88.4224 74.3961L88.7528 72.9005H93.3768L93.706 74.3961C93.7912 74.7843 94.1873 75.1023 94.5845 75.1023H96.3294L94.6986 67.7506ZM89.2111 70.8285L89.7836 68.2247C89.8787 67.8038 90.2058 67.1606 91.0647 67.1606C91.9251 67.1606 92.2509 67.8031 92.346 68.2247L92.9198 70.8285H89.2111Z" fill="#042E4E"/>
<path d="M108.668 83.8331C109.093 83.4148 109.366 82.8451 109.366 82.0549C109.366 80.3056 108.011 79.082 106.261 79.082H100.369C99.9717 79.082 99.6465 79.4066 99.6465 79.8047V88.231C99.6465 88.6284 99.9717 88.9536 100.369 88.9536L106.632 88.9549C108.478 88.9549 109.704 87.6343 109.704 85.8849C109.704 85.0043 109.285 84.3145 108.668 83.8331ZM106.258 81.1311C106.578 81.1311 107.017 81.4903 107.017 82.1041C107.017 82.7224 106.578 83.0378 106.258 83.0765H102.008V81.1304L106.258 81.1311ZM106.451 86.9064H102.007V84.959H106.451C106.772 84.9984 107.209 85.3131 107.209 85.932C107.209 86.5451 106.772 86.9064 106.451 86.9064Z" fill="#042E4E"/>
<path d="M92.7506 78.8555C89.7718 78.8555 87.6893 80.9767 87.6893 84.0185C87.6893 87.0589 89.7711 89.182 92.7506 89.182H93.5755C96.555 89.182 98.6368 87.0589 98.6368 84.0185C98.6368 80.9767 96.5556 78.8555 93.5755 78.8555H92.7506ZM90.2925 84.0185C90.2925 82.248 91.2353 80.8947 92.8962 80.8947H93.4312C95.0909 80.8947 96.033 82.248 96.033 84.0185C96.033 85.7888 95.0901 87.1434 93.4312 87.1434H92.8962C91.2346 87.1428 90.2925 85.7888 90.2925 84.0185Z" fill="#042E4E"/>
<path d="M47.7793 79.082L48.0966 80.5751C48.1812 80.973 48.5759 81.2976 48.9733 81.2976H51.2197V88.9529H53.63V81.2982H55.8063C56.2029 81.2982 56.597 80.9738 56.681 80.5757L56.9983 79.0827L47.7793 79.082Z" fill="#042E4E"/>
<path d="M128.953 79.082V83.0018H124.265V79.082H121.854V88.9536H124.265V85.119H128.953V88.9536H131.364V79.082H128.953Z" fill="#042E4E"/>
<path d="M75.8265 81.6036C75.4652 79.9787 74.4429 78.8457 72.1934 78.8457C70.082 78.8457 68.922 79.9795 68.562 81.6036L66.9287 88.954H68.6742C69.0722 88.954 69.4676 88.638 69.5535 88.2491L69.8826 86.7527H74.5047L74.8345 88.2491C74.919 88.638 75.3158 88.954 75.7138 88.954H77.4585L75.8265 81.6036ZM70.3403 84.6801L70.914 82.0763C71.0072 81.656 71.3343 81.0122 72.1946 81.0122C73.0549 81.0122 73.3821 81.656 73.4758 82.0776L74.0496 84.6795L70.3403 84.6801Z" fill="#042E4E"/>
<path d="M119.156 81.6036C118.795 79.9787 117.772 78.8457 115.523 78.8457C113.409 78.8457 112.251 79.9795 111.89 81.6036L110.258 88.954H112.004C112.401 88.954 112.797 88.638 112.881 88.2491L113.213 86.7527H117.835L118.166 88.2491C118.252 88.638 118.647 88.954 119.044 88.954H120.791L119.156 81.6036ZM113.668 84.6801L114.243 82.0763C114.338 81.656 114.664 81.0122 115.523 81.0122C116.381 81.0122 116.71 81.656 116.804 82.0776L117.378 84.6795L113.668 84.6801Z" fill="#042E4E"/>
<path d="M48.5301 88.926V88.9542H43.8222C40.9719 88.9542 38.9813 86.9248 38.9813 84.0175C38.9813 81.1114 40.9726 79.082 43.8222 79.082H47.3938L47.0443 80.5947C46.9552 80.9828 46.5566 81.2982 46.1585 81.2982H43.8222C42.2991 81.2982 41.391 82.4352 41.391 84.0181C41.391 85.6003 42.2985 86.7379 43.8222 86.7379H47.302C47.6988 86.7379 48.0981 87.054 48.1872 87.4422L48.5301 88.926Z" fill="#042E4E"/>
<path d="M63.459 79.082L58.3149 79.0827C57.9163 79.0827 57.5917 79.4079 57.5917 79.8053V88.9542H60.002V86.45H63.459C65.8168 86.45 67.1432 84.8666 67.1432 82.767C67.1432 80.6669 65.5598 79.082 63.459 79.082ZM63.459 84.2345H60.002V81.3009H63.459C64.0471 81.3009 64.7336 81.8262 64.7336 82.7677C64.7336 83.7079 64.0471 84.2345 63.459 84.2345Z" fill="#042E4E"/>
<path d="M151.791 86.8704H146.6V84.9748H152.243V83.0706H146.6V81.1659H151.791C152.219 81.1659 152.556 80.9783 152.674 80.4616L152.995 79.082H144.913C144.517 79.082 144.19 79.4066 144.19 79.8047V88.231C144.19 88.6283 144.516 88.9549 144.913 88.9549H152.995L152.674 87.5753C152.556 87.0592 152.219 86.8704 151.791 86.8704Z" fill="#042E4E"/>
<path d="M133.015 88.9536V79.082H135.425V85.5951L139.599 79.6643C139.835 79.3443 140.352 79.082 140.752 79.082H142.538V88.9536H140.127V82.4412L135.952 88.3713C135.717 88.6912 135.2 88.9536 134.802 88.9536H133.015Z" fill="#042E4E"/>
<path d="M84.7287 83.965L88.0923 79.082H85.8787C85.4007 79.082 85.0644 79.2275 84.7686 79.6912L82.9766 82.5054H82.656L80.8627 79.6912C80.5683 79.2269 80.2326 79.082 79.752 79.082H77.4668L80.9027 84.0693L77.539 88.9528H79.752C80.2318 88.9528 80.5683 88.8086 80.8627 88.3437L82.656 85.5288H82.9766L84.7686 88.3437C85.0644 88.8086 85.4007 88.9528 85.8787 88.9528H88.1639L84.7287 83.965Z" fill="#042E4E"/>
</g>
</g>
</g>
</g>
<defs>
<clipPath id="clip0_170_1525">
<rect width="153" height="154.265" fill="white"/>
</clipPath>
<clipPath id="clip1_170_1525">
<rect width="153" height="154.265" fill="white"/>
</clipPath>
<clipPath id="clip2_170_1525">
<rect width="152.99" height="154.265" fill="white" transform="translate(0.00585938)"/>
</clipPath>
</defs>
</svg>
